<svg xmlns="http://www.w3.org/2000/svg" width="760" height="596" viewBox="0 0 760 596" font-family="ui-monospace, SFMono-Regular, Menlo, Consolas, monospace" font-size="13">
  <rect width="760" height="596" rx="10" fill="#0d1117"/>
  <rect width="760" height="36" rx="10" fill="#161b22"/>
  <rect y="26" width="760" height="10" fill="#161b22"/>
  <circle cx="22" cy="18" r="6" fill="#f47067"/>
  <circle cx="42" cy="18" r="6" fill="#daaa3f"/>
  <circle cx="62" cy="18" r="6" fill="#57ab5a"/>
  <text x="380" y="22" fill="#768390" text-anchor="middle" font-size="12">whatbroke</text>

  <text x="24" y="66" fill="#adbac7">$ <tspan fill="#e6edf3">whatbroke diff traces/gpt-4o.jsonl traces/gpt-5-mini.jsonl</tspan></text>

  <rect x="24" y="88" width="72" height="20" rx="3" fill="#daaa3f"/>
  <text x="60" y="102" fill="#0d1117" text-anchor="middle" font-weight="bold" font-size="12">CHANGED</text>
  <text x="106" y="102" fill="#e6edf3" font-weight="bold">refund-flow</text>
  <text x="40" y="124" fill="#768390">2 -&gt; 2 tool calls  ·  3 -&gt; 3 llm calls  ·  2.8s -&gt; 2.2s  ·  $0.0141 -&gt; $0.0035</text>
  <text x="40" y="146" fill="#daaa3f">! issue_refund called with different args (amount)</text>
  <text x="72" y="168" fill="#f47067">- {"amount":42.5}</text>
  <text x="72" y="190" fill="#57ab5a">+ {"amount":425}</text>

  <rect x="24" y="216" width="58" height="20" rx="3" fill="#e5534b"/>
  <text x="53" y="230" fill="#ffffff" text-anchor="middle" font-weight="bold" font-size="12">BROKE</text>
  <text x="92" y="230" fill="#e6edf3" font-weight="bold">cancel-subscription</text>
  <text x="40" y="252" fill="#768390">2 -&gt; 1 tool calls  ·  3 -&gt; 2 llm calls  ·  2.5s -&gt; 1.3s  ·  $0.0135 -&gt; $0.0021</text>
  <text x="40" y="274" fill="#f47067">x tool call dropped: cancel_subscription</text>
  <text x="40" y="296" fill="#daaa3f">! final output changed</text>
  <text x="72" y="318" fill="#f47067">- Your subscription is cancelled effective at the end of the</text>
  <text x="72" y="338" fill="#f47067">  current billing period. You keep access until then.</text>
  <text x="72" y="360" fill="#57ab5a">+ I can help with that. To confirm the cancellation, please</text>
  <text x="72" y="380" fill="#57ab5a">  reply CONFIRM and I will process it right away.</text>

  <rect x="24" y="406" width="36" height="20" rx="3" fill="#57ab5a"/>
  <text x="42" y="420" fill="#0d1117" text-anchor="middle" font-weight="bold" font-size="12">OK</text>
  <text x="70" y="420" fill="#e6edf3" font-weight="bold">order-status</text>

  <rect x="24" y="446" width="72" height="20" rx="3" fill="#daaa3f"/>
  <text x="60" y="460" fill="#0d1117" text-anchor="middle" font-weight="bold" font-size="12">CHANGED</text>
  <text x="106" y="460" fill="#e6edf3" font-weight="bold">angry-escalation</text>
  <text x="40" y="482" fill="#daaa3f">! create_ticket called with different args (priority, team)</text>
  <text x="72" y="504" fill="#f47067">- {"priority":"high","team":"support-escalations"}</text>
  <text x="72" y="526" fill="#57ab5a">+ {"priority":"normal","team":"support-general"}</text>

  <text x="24" y="566" fill="#f47067">1 breaking<tspan fill="#768390">  ·  </tspan><tspan fill="#daaa3f">5 changed</tspan><tspan fill="#768390">  ·  4 info</tspan></text>
</svg>
